# xmcd
#
# Track frame offsets: 
#        150
#        20068
#        42209
#        61325
#        112733
#        136554
#        148318
#        175405
#        207997
#        223849
#        236128
#        247302
#        259097
#        272214
#        297531
#        312037
#
# Disc length: 4469 seconds
#
# Revision: 2
# Processed by: cddbd v1.5.2PL0 Copyright (c) Steve Scherf et al.
# Submitted via: ExactAudioCopy v1.1
#
DISCID=02117310
DTITLE=The Blues Project - The Blues Project Anthology - Disc 2
DYEAR=1900
DGENRE=
TTITLE0=I Can't Keep From Cryin' Sometimes (stereo)
TTITLE1=Steve's Song (stereo)
TTITLE2=You Can't Catch Me (stereo)
TTITLE3=Two Trains Running (stereo)
TTITLE4=Wake Me, Shake Me (stereo)
TTITLE5=Cheryl's Goin' Home (stereo)
TTITLE6=Flute Thing (stereo)
TTITLE7=Carress Me Baby (stereo)
TTITLE8=Fly Away (stereo)
TTITLE9=No Time Like The Right Time (mono)
TTITLE10=Mean Old Southern (live) (stereo)
TTITLE11=Gentle Dreams (mono)
TTITLE12=Lost In The Shuffle (mono)
TTITLE13=Black Night (stereo)
TTITLE14=Visions Of Flowers (stereo)
TTITLE15=Little Rain (stereo)
EXTD=
EXTT0=
EXTT1=
EXTT2=
EXTT3=
EXTT4=
EXTT5=
EXTT6=
EXTT7=
EXTT8=
EXTT9=
EXTT10=
EXTT11=
EXTT12=
EXTT13=
EXTT14=
EXTT15=
PLAYORDER=
